Coordinates
version=1
nRows=20
nColumns=30
inDegrees=yes

Units are S.I. units (second, meters, Newtons, ...)
Angles are in degrees.

endheader
time	floatyaw	floatroll	floatpitch	floatx	floaty	floatz	pro_sup_l	deviation_l	flexion_l	cmc_flexion_l	cmc_abduction_l	mp_flexion_l	ip_flexion_l	2mcp_flexion_l	2mcp_abduction_l	2pm_flexion_l	2md_flexion_l	3mcp_flexion_l	3mcp_abduction_l	3pm_flexion_l	3md_flexion_l	4mcp_flexion_l	4mcp_abduction_l	4pm_flexion_l	4md_flexion_l	5mcp_flexion_l	5mcp_abduction_l	5pm_flexion_l	5md_flexion_l
-1.495000	-0.679314	-3.115271	87.889519	-0.009751	-0.228755	0.003622	86.917901	0.376575	-4.866697	26.269595	0.709684	-19.011312	-33.533758	16.550114	5.058389	33.537926	20.328650	4.097917	3.559477	37.788912	21.603219	-7.943773	-3.028810	56.605142	29.134386	-23.911264	-6.778151	65.624100	39.053027
-1.485000	-0.679314	-3.115271	87.889519	-0.009759	-0.228808	0.003595	86.869588	0.374620	-4.871390	26.274504	0.758187	-19.008723	-33.532419	16.576402	5.049600	33.478075	20.330072	4.102363	3.552020	37.760339	21.632666	-8.006705	-3.034596	56.622557	29.231353	-23.881323	-6.743571	65.490511	39.224648
-1.475000	-0.679314	-3.115271	87.889519	-0.009746	-0.228830	0.003539	86.845199	0.385053	-4.856848	26.276185	0.761677	-18.993431	-33.492953	16.541016	5.037810	33.496084	20.336168	4.052718	3.544728	37.795718	21.659299	-8.099714	-3.037919	56.704591	29.287380	-23.884488	-6.722754	65.450323	39.333086
-1.465000	-0.679314	-3.115271	87.889519	-0.009715	-0.228825	0.003467	86.849734	0.405673	-4.829265	26.277431	0.721068	-18.969189	-33.428173	16.444831	5.024890	33.596479	20.349159	3.955324	3.539264	37.898587	21.672992	-8.208622	-3.039529	56.844113	29.281539	-23.919452	-6.717351	65.519897	39.351220
-1.455000	-0.679314	-3.115271	87.889519	-0.009675	-0.228809	0.003398	86.878120	0.431060	-4.800544	26.281923	0.653412	-18.944313	-33.361542	16.310884	5.012928	33.755548	20.372649	3.835618	3.536464	38.048502	21.668281	-8.312227	-3.040617	57.016235	29.214765	-23.976664	-6.727341	65.684871	39.282972
-1.445000	-0.679314	-3.115271	87.889519	-0.009635	-0.228798	0.003347	86.916605	0.454583	-4.784393	26.296637	0.588371	-18.930001	-33.324328	16.180303	5.004383	33.928299	20.409152	3.731307	3.536444	38.206881	21.647777	-8.386005	-3.041861	57.185172	29.111632	-24.040705	-6.751380	65.907621	39.161613
-1.435000	-0.679314	-3.115271	87.889519	-0.009603	-0.228804	0.003320	86.947953	0.470600	-4.790830	26.329969	0.557682	-18.936370	-33.346194	16.098924	5.001509	34.064267	20.456950	3.678299	3.538931	38.330725	21.622143	-8.409563	-3.042787	57.315016	29.012270	-24.095786	-6.787381	66.140506	39.036095
-1.425000	-0.679314	-3.115271	87.889519	-0.009577	-0.228829	0.003316	86.958601	0.476143	-4.821416	26.385183	0.581042	-18.966980	-33.440581	16.098631	5.005034	34.126074	20.508711	3.694971	3.543450	38.388915	21.605827	-8.375527	-3.042021	57.380921	28.956908	-24.132097	-6.832614	66.339051	38.951034
-1.415000	-0.679314	-3.115271	87.889519	-0.009559	-0.228863	0.003328	86.944529	0.471542	-4.867942	26.454039	0.655729	-19.015013	-33.592938	16.182519	5.013061	34.102496	20.553131	3.773317	3.549384	38.373528	21.610163	-8.294550	-3.038208	57.376469	28.969253	-24.148964	-6.882949	66.470739	38.929831
-1.405000	-0.679314	-3.115271	87.889519	-0.009549	-0.228894	0.003353	86.912805	0.459792	-4.915841	26.517304	0.756688	-19.064775	-33.762093	16.322483	5.021456	34.010595	20.578934	3.882769	3.556019	38.300706	21.637206	-8.192052	-3.030875	57.314151	29.046291	-24.152452	-6.931899	66.519066	38.968393
-1.395000	-0.679314	-3.115271	87.889519	-0.009548	-0.228910	0.003388	86.877883	0.444978	-4.951033	26.554482	0.848118	-19.099185	-33.898321	16.471497	5.026008	33.886846	20.579420	3.985306	3.562584	38.201047	21.677854	-8.097222	-3.020639	57.218867	29.159810	-24.149163	-6.970989	66.484797	39.041047
-1.385000	-0.679314	-3.115271	87.889519	-0.009559	-0.228908	0.003431	86.854545	0.430575	-4.966597	26.557089	0.900390	-19.109090	-33.969068	16.584638	5.024994	33.771564	20.555444	4.053347	3.568169	38.105029	21.715862	-8.030247	-3.008769	57.117673	29.269534	-24.140975	-6.992316	66.384962	39.114673
-1.375000	-0.679314	-3.115271	87.889519	-0.009581	-0.228894	0.003481	86.851266	0.418508	-4.965176	26.535304	0.902306	-19.097911	-33.975264	16.637474	5.020078	33.693468	20.515293	4.079801	3.571611	38.031648	21.735929	-7.995596	-2.996574	57.031094	29.341173	-24.124719	-6.992263	66.248205	39.163655
-1.365000	-0.679314	-3.115271	87.889519	-0.009610	-0.228880	0.003535	86.867543	0.409391	-4.955465	26.511871	0.861711	-19.078000	-33.946134	16.631799	5.014714	33.661335	20.471441	4.074700	3.571570	37.986087	21.731270	-7.985344	-2.985125	56.970125	29.359482	-24.096906	-6.973805	66.106455	39.178061
-1.355000	-0.679314	-3.115271	87.889519	-0.009639	-0.228876	0.003584	86.896231	0.403563	-4.945343	26.507064	0.796018	-19.061413	-33.916218	16.587076	5.011518	33.665994	20.436067	4.052531	3.566970	37.965642	21.706461	-7.988920	-2.975373	56.938679	29.329956	-24.059267	-6.945535	65.986272	39.161851
-1.345000	-0.679314	-3.115271	87.889519	-0.009663	-0.228882	0.003620	86.928589	0.401946	-4.937002	26.525779	0.721471	-19.052172	-33.902202	16.525700	5.010990	33.689802	20.417830	4.021116	3.557701	37.967303	21.674420	-8.000721	-2.968325	56.937182	29.270760	-24.020055	-6.917854	65.904200	39.124521
-1.335000	-0.679314	-3.115271	87.889519	-0.009677	-0.228891	0.003632	86.958338	0.405795	-4.927661	26.556114	0.649028	-19.045641	-33.896786	16.462758	5.012559	33.716969	20.420920	3.980452	3.545188	37.990364	21.649651	-8.019990	-2.964950	56.963330	29.202015	-23.989850	-6.898604	65.867480	39.073261
-1.325000	-0.679314	-3.115271	87.889519	-0.009679	-0.228894	0.003617	86.982576	0.415367	-4.914613	26.579861	0.586896	-19.034692	-33.882520	16.404874	5.016487	33.739481	20.445321	3.930303	3.532267	38.033134	21.641180	-8.045024	-2.965828	57.010034	29.138599	-23.975454	-6.890464	65.877159	39.010678
-1.315000	-0.679314	-3.115271	87.889519	-0.009672	-0.228892	0.003579	87.000183	0.428494	-4.899846	26.586448	0.543612	-19.017039	-33.852499	16.354554	5.024439	33.757547	20.486792	3.877738	3.522142	38.088503	21.648277	-8.068668	-2.970828	57.063981	29.087748	-23.976954	-6.891037	65.929296	38.937948
-1.305000	-0.679314	-3.115271	87.889519	-0.009660	-0.228894	0.003535	87.009694	0.440381	-4.890218	26.579714	0.527111	-18.997779	-33.820133	16.313733	5.038030	33.776592	20.536777	3.836723	3.516990	38.143923	21.660880	-8.079848	-2.979152	57.107995	29.049353	-23.990008	-6.894921	66.013282	38.859315
